<?xml version="1.0" encoding="utf-8"?>
<!-- Generator: Adobe Illustrator 26.0.0, SVG Export Plug-In . SVG Version: 6.00 Build 0)  -->
<svg version="1.1" xmlns="http://www.w3.org/2000/svg" xmlns:xlink="http://www.w3.org/1999/xlink" x="0px" y="0px"
	 viewBox="0 0 595.28 841.89" style="enable-background:new 0 0 595.28 841.89;" xml:space="preserve">
<style type="text/css">
	.st0{fill:#0E1D30;stroke:#0E1D30;stroke-width:5;stroke-miterlimit:10;}
	.st1{fill:#FFFFFF;stroke:#FFFFFF;stroke-width:5;stroke-miterlimit:10;}
	.st2{fill:none;stroke:#FFFFFF;stroke-width:5;stroke-miterlimit:10;}
	.st3{fill:#FFFFFF;stroke:#0E1D30;stroke-width:5;stroke-miterlimit:10;}
	.st4{fill:#EF4965;stroke:#0E1D30;stroke-width:5;stroke-miterlimit:10;}
</style>
<g id="Layer_2">
	<circle class="st0" cx="301.52" cy="447.29" r="261.95"/>
</g>
<g id="Layer_4">
	<ellipse class="st1" cx="175.07" cy="364.06" rx="13.63" ry="12.7"/>
	<ellipse class="st1" cx="233.63" cy="454.37" rx="13.63" ry="12.7"/>
	<ellipse class="st1" cx="409.3" cy="494.3" rx="13.63" ry="12.7"/>
	<ellipse class="st1" cx="301.52" cy="384.28" rx="14.13" ry="13.17"/>
	<line class="st2" x1="175.07" y1="364.06" x2="297.74" y2="384.28"/>
	<line class="st2" x1="233.63" y1="454.37" x2="175.07" y2="364.06"/>
	<line class="st2" x1="409.3" y1="494.3" x2="298.47" y2="384.28"/>
	<line class="st2" x1="233.63" y1="454.37" x2="409.3" y2="494.3"/>
	<line class="st2" x1="409.3" y1="494.3" x2="471.4" y2="579.03"/>
	<ellipse class="st1" cx="140.21" cy="264.52" rx="13.63" ry="12.7"/>
	<ellipse class="st1" cx="487.6" cy="601.14" rx="13.63" ry="12.7"/>
	<line class="st2" x1="140.21" y1="264.52" x2="175.07" y2="364.06"/>
	<line class="st2" x1="120.05" y1="327.84" x2="175.07" y2="364.06"/>
	<ellipse class="st1" cx="117.85" cy="326.39" rx="13.63" ry="12.7"/>
	<line class="st2" x1="409.3" y1="494.3" x2="327.02" y2="516.94"/>
	<ellipse class="st1" cx="331.76" cy="515.63" rx="13.63" ry="12.7"/>
	<line class="st2" x1="331.76" y1="515.63" x2="232.68" y2="454.37"/>
	<line class="st2" x1="142.7" y1="271.61" x2="142.7" y2="271.61"/>
</g>
<g id="Layer_1">
	<polygon class="st3" points="312.33,255.99 312.33,639.99 491.33,587.99 491.33,536.99 438.33,536.99 438.33,551.99 369.33,570.99 
		369.33,299.99 	"/>
	<polygon class="st4" points="290.72,255.99 290.72,639.99 111.72,587.99 111.72,536.99 164.72,536.99 164.72,551.99 233.72,570.99 
		233.72,299.99 	"/>
</g>
</svg>
